<mxfile host="app.diagrams.net" modified="2020-11-13T12:36:53.797Z" agent="5.0 (X11)" etag="vgzc9usS6aHvRufJT56i" version="13.9.7" type="github">
  <diagram id="tooYOYPjSh0F12o2t2tr" name="Page-1">
    <mxGraphModel dx="1378" dy="775" grid="1" gridSize="10" guides="1" tooltips="1" connect="1" arrows="1" fold="1" page="1" pageScale="1" pageWidth="827" pageHeight="1169" math="0" shadow="0">
      <root>
        <mxCell id="0" />
        <mxCell id="1" parent="0" />
        <mxCell id="gzLSFk6OzfPCK6vO1aMI-1" value="" style="rounded=0;whiteSpace=wrap;html=1;" vertex="1" parent="1">
          <mxGeometry x="460" y="370" width="170" height="110" as="geometry" />
        </mxCell>
        <mxCell id="gzLSFk6OzfPCK6vO1aMI-2" value="" style="rounded=0;whiteSpace=wrap;html=1;" vertex="1" parent="1">
          <mxGeometry x="500" y="240" width="120" height="60" as="geometry" />
        </mxCell>
        <mxCell id="gzLSFk6OzfPCK6vO1aMI-3" value="" style="rounded=0;whiteSpace=wrap;html=1;" vertex="1" parent="1">
          <mxGeometry x="294" y="150" width="120" height="60" as="geometry" />
        </mxCell>
      </root>
    </mxGraphModel>
  </diagram>
</mxfile>
